<?xml version="1.0" encoding="UTF-8" standalone="no"?>
<svg
   xmlns:dc="http://purl.org/dc/elements/1.1/"
   xmlns:cc="http://creativecommons.org/ns#"
   xmlns:rdf="http://www.w3.org/1999/02/22-rdf-syntax-ns#"
   xmlns:svg="http://www.w3.org/2000/svg"
   xmlns="http://www.w3.org/2000/svg"
   xmlns:sodipodi="http://sodipodi.sourceforge.net/DTD/sodipodi-0.dtd"
   xmlns:inkscape="http://www.inkscape.org/namespaces/inkscape"
   viewBox="0 0 400 116"
   id="svg2"
   version="1.1"
   inkscape:version="0.91 r13725"
   sodipodi:docname="us.svg">
  <metadata
     id="metadata10">
    <rdf:RDF>
      <cc:Work
         rdf:about="">
        <dc:format>image/svg+xml</dc:format>
        <dc:type
           rdf:resource="http://purl.org/dc/dcmitype/StillImage" />
        <dc:title />
      </cc:Work>
    </rdf:RDF>
  </metadata>
  <defs
     id="defs8" />
  <sodipodi:namedview
     pagecolor="#ffffff"
     bordercolor="#666666"
     borderopacity="1"
     objecttolerance="10"
     gridtolerance="10"
     guidetolerance="10"
     inkscape:pageopacity="0"
     inkscape:pageshadow="2"
     inkscape:window-width="1280"
     inkscape:window-height="714"
     id="namedview6"
     showgrid="false"
     inkscape:zoom="1.4071425"
     inkscape:cx="186.33806"
     inkscape:cy="-19.841734"
     inkscape:window-x="0"
     inkscape:window-y="1"
     inkscape:window-maximized="1"
     inkscape:current-layer="svg2" />
  <text
     xml:space="preserve"
     style="font-style:normal;font-variant:normal;font-weight:normal;font-stretch:normal;font-size:125px;line-height:650%;font-family:Probert;-inkscape-font-specification:Probert;text-align:start;letter-spacing:0.55000001px;word-spacing:0px;writing-mode:lr-tb;text-anchor:start;fill:#000000;fill-opacity:1;stroke:none;stroke-width:1px;stroke-linecap:butt;stroke-linejoin:miter;stroke-opacity:1"
     x="85.989868"
     y="184.93404"
     id="text4143"
     sodipodi:linespacing="650%"><tspan
       sodipodi:role="line"
       id="tspan4145"
       x="85.989868"
       y="184.93404" /></text>
  <path
     style="clip-rule:evenodd;fill:#000000;fill-opacity:1;fill-rule:evenodd"
     inkscape:connector-curvature="0"
     id="signet"
     d="m 152.27754,60.721437 c 0,-18.9437 8.92715,-35.88544 22.96489,-47.20484 -1.50145,-2.27377 -2.80847,-4.6753903 -3.89274,-7.1894703 -16.56796,12.7374403 -27.17682,32.2859403 -27.17682,54.2085803 0,19.49685 8.39248,37.11518 21.90434,49.736503 7.68368,2.86135 15.6984,5.08531 23.97262,6.61361 -22.27751,-9.71857 -37.77229,-31.203093 -37.77229,-56.164383 z m 113.21582,-0.1425 c 0,-14.28333 -6.70961,-27.06143 -17.26796,-35.62535 -2.75373,2.15069 -5.75815,4.01491 -8.95892,5.563 9.8059,6.71764 16.20322,17.70295 16.20322,30.12499 0,20.45039 -17.32117,37.02946 -38.68893,37.02946 -21.36738,0 -38.68893,-16.57907 -38.68893,-37.02946 0,-12.50739 6.48573,-23.55901 16.40721,-30.26346 -3.21721,-1.58106 -6.23542,-3.48008 -8.99489,-5.67143 -10.73287,8.56392 -17.56612,21.45302 -17.56612,35.87225 0,25.78369 21.83852,46.686123 48.77843,46.686123 26.93762,0 48.77689,-20.902433 48.77689,-46.686123 z m -97.86915,-74.56116 0,-6.14325 c -29.00244,16.2057997 -48.49253,46.30771 -48.49253,80.76925 0,8.09722 1.07699,15.95449 3.09972,23.44691 2.60409,2.29172 5.29544,4.49406 8.07635,6.5931 -3.57967,-9.41086 -5.53388,-19.56792 -5.53388,-30.16236 -3.9e-4,-31.34852 17.0965,-58.8722503 42.85034,-74.50365 z m 98.79805,-5.87143 0,6.03957 c 25.59728,15.6603397 42.56865,43.10055 42.56865,74.33551 0,10.40505 -1.88915,20.38737 -5.34789,29.65463 2.67414,-2.04335 5.26674,-4.18012 7.77516,-6.40334 1.96837,-7.39644 3.01629,-15.14565 3.01629,-23.12894 0,-34.27105 -19.27617,-64.2290003 -48.01221,-80.49743 z m -3.84108,26.4610197 c -1.10685,2.52104 -2.44524,4.9241203 -3.97272,7.2004603 13.83412,11.31794 22.61392,28.12999 22.61392,46.91324 0,24.90488 -15.42475,46.349113 -37.62187,56.098813 8.3079,-1.55651 16.35362,-3.81086 24.06178,-6.71105 13.41045,-12.609233 21.73059,-30.160533 21.73059,-49.573483 0,-21.7622 -10.45309,-41.18431 -26.8117,-53.9279803 z m 3.84108,-56.8197297 0,3.16686 c 39.85394,16.90108 68.56436,53.4766697 72.68598,96.85709 0.96409,-1.68619 1.88761,-3.39582 2.77746,-5.12487 -5.94685,-42.8111503 -35.36072,-78.52368 -75.46344,-94.89908 z m -98.79805,2.86758 0,-2.85513 c -40.46135,16.53365 -70.037114,52.7524397 -75.595106,96.08487 0.707284,1.34075 1.435234,2.66904 2.188063,3.98377 4.126584,-43.6643203 33.164233,-80.44139 73.407043,-97.21352 z m 48.96137,132.86999 c 14.40324,0 26.07992,-11.1747 26.07992,-24.96092 0,-13.7855 -11.67668,-24.96167 -26.07992,-24.96167 -14.40362,0 -26.07992,11.17617 -26.07992,24.96167 0,13.78585 11.6763,24.96092 26.07992,24.96092 z" />
  <path
     style="font-style:normal;font-variant:normal;font-weight:normal;font-stretch:normal;font-size:196.57759094px;line-height:650%;font-family:Probert;-inkscape-font-specification:Probert;text-align:start;letter-spacing:0.86494142px;word-spacing:0px;writing-mode:lr-tb;text-anchor:start;fill:#000000;fill-opacity:1;stroke:none;stroke-width:1px;stroke-linecap:butt;stroke-linejoin:miter;stroke-opacity:1"
     d="m 266.42148,-50.212803 0,3.16797 c 39.85394,16.90108 68.56588,53.4750497 72.6875,96.85547 0.96409,-1.68619 1.88749,-3.394 2.77734,-5.12305 -5.94685,-42.8111503 -35.36212,-78.52499 -75.46484,-94.90039 z m -98.79688,0.01367 c -40.46134,16.53365 -70.037709,52.7515497 -75.595701,96.08398 0.707284,1.34075 1.434671,2.66965 2.1875,3.98438 4.126584,-43.6643203 33.165401,-80.44271 73.408201,-97.21484 l 0,-2.85352 z m 0,30.07422 c -29.00244,16.2057997 -48.49219,46.30799 -48.49219,80.76953 0,8.09722 1.07689,15.95289 3.09961,23.44531 2.60409,2.29172 5.29527,4.49471 8.07618,6.59375 -3.57967,-9.41086 -5.53516,-19.56767 -5.53516,-30.16211 -3.8e-4,-31.34852 17.09773,-58.8725003 42.85156,-74.5039 l 0,-6.14258 z m 98.79688,0.27148 0,6.03907 c 25.59728,15.6603397 42.57031,43.10097 42.57031,74.33593 0,10.40505 -1.89087,20.38704 -5.34961,29.6543 2.67414,-2.04335 5.26697,-4.17912 7.77539,-6.40234 1.96837,-7.39644 3.01758,-15.14562 3.01758,-23.12891 0,-34.27105 -19.27763,-64.2296203 -48.01367,-80.49805 z M 171.34921,6.3262567 C 154.78126,19.063697 144.17343,38.612607 144.17343,60.535237 c 0,19.49685 8.39243,37.11501 21.9043,49.736333 7.68367,2.86135 15.69843,5.08498 23.97266,6.61328 -22.27752,-9.71857 -37.77344,-31.202773 -37.77344,-56.164063 0,-18.9437 8.9271,-35.88568 22.96484,-47.20508 -1.50145,-2.27377 -2.80831,-4.6753703 -3.89258,-7.1894503 z m 91.23242,0.28125 c -1.10685,2.52104 -2.44517,4.9248303 -3.97265,7.2011703 13.83412,11.31794 22.61328,28.12886 22.61328,46.91211 0,24.90488 -15.42397,46.349913 -37.62109,56.099613 8.3079,-1.55651 16.35238,-3.81075 24.06054,-6.71094 13.41045,-12.609233 21.73047,-30.161263 21.73047,-49.574223 0,-21.7622 -10.45193,-41.18406 -26.81055,-53.9277303 z M 185.50351,24.707117 c -10.73287,8.56392 -17.56641,21.45186 -17.56641,35.87109 0,25.78369 21.83939,46.687503 48.7793,46.687503 26.93762,0 48.77734,-20.903813 48.77734,-46.687503 0,-14.28333 -6.70922,-27.06108 -17.26757,-35.625 -2.75373,2.15069 -5.75822,4.01441 -8.95899,5.5625 9.8059,6.71764 16.20313,17.70296 16.20313,30.125 0,20.45039 -17.3217,37.03125 -38.68946,37.03125 -21.36738,0 -38.68945,-16.58086 -38.68945,-37.03125 0,-12.50739 6.48672,-23.55727 16.4082,-30.26171 -3.21721,-1.58107 -6.23662,-3.48053 -8.99609,-5.67188 z m 31.08203,10.89453 c -14.40362,0 -26.08008,11.17739 -26.08008,24.96289 0,13.78585 11.67646,24.96094 26.08008,24.96094 14.40324,0 26.08008,-11.17472 26.08008,-24.96094 0,-13.7855 -11.67684,-24.96289 -26.08008,-24.96289 z m 25.13281,93.980473 c -3.69642,0 -6.60016,1.04926 -8.71093,3.14648 -2.10048,2.09723 -3.15235,4.99386 -3.15235,8.68946 0,3.68541 1.05187,6.5766 3.15235,8.67383 2.11077,2.09722 5.01451,3.14648 8.71093,3.14648 3.70673,0 6.61047,-1.04926 8.71094,-3.14648 2.10048,-2.09723 3.15039,-4.98842 3.15039,-8.67383 0,-3.6956 -1.04991,-6.59223 -3.15039,-8.68946 -2.10047,-2.09722 -5.00421,-3.14648 -8.71094,-3.14648 z m 54.94532,0 c -3.84058,0 -6.88233,1.06364 -9.12696,3.19141 -2.24462,2.11758 -3.36718,4.99983 -3.36718,8.64453 0,3.63451 1.12256,6.51481 3.36718,8.64258 2.24463,2.11758 5.28638,3.17773 9.12696,3.17773 1.28705,0 2.52294,-0.14267 3.70703,-0.42773 1.18409,-0.28506 2.32264,-0.70764 3.41406,-1.26758 l 0,-4.71875 c -1.10172,0.74319 -2.18893,1.28667 -3.25977,1.63281 -1.07083,0.34614 -2.19872,0.51953 -3.38281,0.51953 -2.12107,0 -3.78892,-0.67177 -5.0039,-2.01562 -1.21499,-1.34386 -1.82227,-3.19123 -1.82227,-5.54297 0,-2.36193 0.60728,-4.21474 1.82227,-5.5586 1.21498,-1.34385 2.88283,-2.01562 5.0039,-2.01562 1.18409,0 2.31198,0.17339 3.38281,0.51953 1.07084,0.34614 2.15805,0.88962 3.25977,1.63281 l 0,-4.71875 c -1.09142,-0.55994 -2.22997,-0.98252 -3.41406,-1.26758 -1.18409,-0.28506 -2.41998,-0.42773 -3.70703,-0.42773 z m -192.58985,0.41211 0,14.23437 c 0,2.97277 0.73997,5.21745 2.22266,6.73438 1.49298,1.51692 3.69743,2.27539 6.61132,2.27539 2.9036,0 5.09739,-0.75847 6.58008,-2.27539 1.49299,-1.51693 2.23828,-3.76161 2.23828,-6.73438 l 0,-14.23437 -3.13476,0 0,13.85156 c 0,2.44337 -0.44796,4.20404 -1.34375,5.28321 -0.89579,1.06897 -2.34233,1.60351 -4.33985,1.60351 -2.0078,0 -3.45967,-0.53455 -4.35546,-1.60351 -0.8958,-1.07917 -1.34375,-2.83984 -1.34375,-5.28321 l 0,-13.85156 -3.13477,0 z m 24.39258,0 0,22.80078 14.34765,0 0,-2.5957 -11.22851,0 0,-20.20508 -3.11914,0 z m 10.95508,0 0,2.59766 8.18554,0 0,20.20312 3.13477,0 0,-20.20312 8.18555,0 0,-2.59766 -19.50586,0 z m 23.46484,0 0,22.80078 3.11914,0 0,-9.63672 3.39844,0 c 1.23557,0 2.20751,0.24919 2.91797,0.74805 0.72075,0.49885 1.46267,1.51196 2.22461,3.03906 l 2.95117,5.84961 3.34961,0 -3.16602,-6.23047 c -0.63838,-1.28277 -1.27568,-2.29042 -1.91406,-3.02344 -0.62808,-0.73301 -1.27604,-1.21157 -1.94531,-1.43554 1.28706,-0.36651 2.26432,-1.0239 2.93359,-1.97071 0.67957,-0.9468 1.01953,-2.13873 1.01953,-3.57421 0,-2.19904 -0.64796,-3.84232 -1.94531,-4.93164 -1.29735,-1.08934 -3.2645,-1.63477 -5.90039,-1.63477 l -7.04297,0 z m 27.54297,0 -8.80469,22.80078 3.29102,0 2.09961,-5.84961 10.39453,0 2.09961,5.84961 3.24414,0 -8.78711,-22.80078 -3.53711,0 z m 15.57422,0 0,4.44531 7.66211,0 0,18.35547 5.94531,0 0,-18.35547 7.64453,0 0,-4.44531 -21.25195,0 z m 52.92383,0 0,13.66797 c 0,3.22728 0.81989,5.63097 2.45703,7.20898 1.63714,1.57801 4.12826,2.36719 7.47461,2.36719 3.35664,0 5.8531,-0.78918 7.49023,-2.36719 1.63714,-1.57801 2.45508,-3.9817 2.45508,-7.20898 l 0,-13.66797 -5.94531,0 0,13.66797 c 0,1.88343 -0.31332,3.23242 -0.94141,4.04687 -0.61778,0.80428 -1.63768,1.20703 -3.05859,1.20703 -1.41062,0 -2.43051,-0.40275 -3.05859,-1.20703 -0.61779,-0.81445 -0.92579,-2.16344 -0.92579,-4.04687 l 0,-13.66797 -5.94726,0 z m 50.60742,0 0,22.80078 5.94531,0 0,-9.66601 8.77344,0 0,9.66601 5.94531,0 0,-22.80078 -5.94531,0 0,8.68945 -8.77344,0 0,-8.68945 -5.94531,0 z m -143.5293,2.53516 3.92383,0 c 1.50328,0 2.63455,0.34133 3.39649,1.02343 0.77223,0.67193 1.16015,1.67414 1.16015,3.00782 0,1.33367 -0.38792,2.34677 -1.16015,3.03906 -0.76194,0.68211 -1.89321,1.02344 -3.39649,1.02344 l -3.92383,0 0,-8.09375 z m 26.1836,0.5039 4.24804,11.34766 -8.47851,0 4.23047,-11.34766 z m 49.52929,0.81055 c 1.82248,0 3.23172,0.66088 4.23047,1.98437 0.99876,1.3235 1.49805,3.1872 1.49805,5.58985 0,2.39246 -0.49929,4.25072 -1.49805,5.57422 -0.99875,1.32349 -2.40799,1.98437 -4.23047,1.98437 -1.81217,0 -3.21804,-0.66088 -4.21679,-1.98437 -0.99876,-1.3235 -1.49805,-3.18176 -1.49805,-5.57422 0,-2.40265 0.49929,-4.26635 1.49805,-5.58985 0.99875,-1.32349 2.40462,-1.98437 4.21679,-1.98437 z"
     id="text4139"
     inkscape:connector-curvature="0" />
  <text
     sodipodi:linespacing="650%"
     id="text4147"
     y="153.6608"
     x="100.75309"
     style="font-style:normal;font-variant:normal;font-weight:normal;font-stretch:normal;font-size:196.57759094px;line-height:650%;font-family:Probert;-inkscape-font-specification:Probert;text-align:start;letter-spacing:0.86494142px;word-spacing:0px;writing-mode:lr-tb;text-anchor:start;fill:#000000;fill-opacity:1;stroke:none;stroke-width:1px;stroke-linecap:butt;stroke-linejoin:miter;stroke-opacity:1"
     xml:space="preserve"
     transform="scale(1.0056684,0.99436354)"><tspan
       style="font-style:normal;font-variant:normal;font-weight:normal;font-stretch:normal;font-size:31.45241547px;font-family:STIXIntegralsUp;-inkscape-font-specification:STIXIntegralsUp"
       y="153.6608"
       x="100.75309"
       id="tspan4149"
       sodipodi:role="line">ULTRA</tspan></text>
</svg>
